# xmcd
#
# Track frame offsets: 
#        150
#        25344
#        46765
#        64648
#        85305
#
# Disc length: 1334 seconds
#
# Revision: 2
# Processed by: cddbd v1.5.1PL0 Copyright (c) Steve Scherf et al.
# Submitted via: ExactAudioCopy v0.95a5
#
DISCID=35053405
DTITLE=Eliott Smith - Sampler
DYEAR=2004
DGENRE=
TTITLE0=Coast To Coast
TTITLE1=Pretty (ugly Before)
TTITLE2=A Fond Farewell
TTITLE3=Don't Go Down
TTITLE4=Little One
EXTD=
EXTT0=
EXTT1=
EXTT2=
EXTT3=
EXTT4=
PLAYORDER=
